<svg xmlns="http://www.w3.org/2000/svg" width="80" height="80" xmlns:v="https://vecta.io/nano"><path d="M39.926 30.43L54.14 42.198a.35.35 0 0 1 .025.148v11.917a1.53 1.53 0 0 1-.47 1.117 1.52 1.52 0 0 1-1.112.473H43.1V46.32h-6.33v9.534h-9.5c-.428 0-.8-.158-1.112-.472a1.53 1.53 0 0 1-.47-1.117V42.347a.34.34 0 0 1 .012-.074.35.35 0 0 0 .012-.074l14.214-11.77zm19.65 9.087c.164.132.255.3.272.533s-.04.418-.172.584l-1.533 1.837c-.133.15-.305.24-.52.273h-.074c-.214 0-.387-.058-.52-.173L39.926 28.245 22.82 42.57c-.198.132-.396.2-.594.174-.214-.033-.387-.124-.52-.273l-1.533-1.837c-.132-.165-.2-.36-.173-.584a.72.72 0 0 1 .272-.534l17.774-14.87c.527-.43 1.154-.645 1.88-.645s1.352.215 1.878.645l6.03 5.065v-4.84c0-.23.074-.422.222-.57s.338-.223.57-.223h4.746c.23 0 .42.074.568.223s.223.34.223.57V35l5.413 4.518z" fill="#fff" fill-rule="evenodd"/></svg>